<svg width="20" height="20" viewBox="0 0 20 20" fill="none" xmlns="http://www.w3.org/2000/svg">
<path d="M8.5749 3.21665L1.51656 15C1.37104 15.252 1.29403 15.5377 1.29322 15.8288C1.2924 16.1198 1.3678 16.4059 1.51192 16.6588C1.65603 16.9116 1.86383 17.1223 2.11465 17.2699C2.36547 17.4174 2.65056 17.4968 2.94156 17.5H17.0582C17.3492 17.4968 17.6343 17.4174 17.8851 17.2699C18.136 17.1223 18.3438 16.9116 18.4879 16.6588C18.632 16.4059 18.7074 16.1198 18.7066 15.8288C18.7058 15.5377 18.6288 15.252 18.4832 15L11.4249 3.21665C11.2763 2.97174 11.0672 2.76925 10.8176 2.62872C10.568 2.48819 10.2863 2.41437 9.9999 2.41437C9.71345 2.41437 9.43184 2.48819 9.18223 2.62872C8.93263 2.76925 8.72345 2.97174 8.5749 3.21665V3.21665Z" stroke="#FF872C" stroke-width="1.25" stroke-linecap="round" stroke-linejoin="round"/>
<path d="M10 7.5V10.8333" stroke="#FF872C" stroke-width="1.25" stroke-linecap="round" stroke-linejoin="round"/>
<path d="M10 14.1667H10.0083" stroke="#FF872C" stroke-width="1.25" stroke-linecap="round" stroke-linejoin="round"/>
</svg>
