<svg width="188" height="32" viewBox="0 0 188 32" fill="none" xmlns="http://www.w3.org/2000/svg">
<path fill-rule="evenodd" clip-rule="evenodd" d="M25.9591 10.7233C26.0721 10.8736 26.1693 11.0356 26.2486 11.2076C30.9256 12.3883 34.3687 16.2955 34.3687 20.921C34.3687 26.4785 29.3984 31 23.2893 31C20.0997 31 17.2213 29.7672 15.198 27.7984H7.51731C5.86426 27.7984 4.51935 26.5749 4.51935 25.0711C4.51935 24.2074 4.96343 23.4368 5.65433 22.9367C4.96343 22.4367 4.51935 21.666 4.51935 20.8023C4.51935 19.9387 4.96343 19.168 5.65433 18.6679C4.96343 18.1679 4.51935 17.3972 4.51935 16.5336C4.51935 15.6699 4.96343 14.8992 5.65433 14.3992C4.96343 13.8991 4.51935 13.1285 4.51935 12.2648C4.51935 10.761 5.86426 9.53753 7.51731 9.53753H9.21702C8.88516 9.09868 8.69042 8.56775 8.69042 7.99603C8.69042 7.42432 8.88522 6.89339 9.21702 6.45453H3.99796C2.34491 6.45453 1 5.23106 1 3.72727C1 2.22348 2.34491 1 3.99796 1H19.9654C21.6184 1 22.9633 2.22348 22.9633 3.72727C22.9633 4.29899 22.7685 4.82991 22.4367 5.26877H27.6558C29.3088 5.26877 30.6537 6.49224 30.6537 7.99603C30.6537 9.49983 29.3088 10.7233 27.6558 10.7233H25.9591ZM29.3503 7.99603C29.3503 7.14607 28.5902 6.45453 27.6558 6.45453H11.6884C10.754 6.45453 9.99388 7.14607 9.99388 7.99603C9.99388 8.84599 10.754 9.53753 11.6884 9.53753H23.4847H27.6558C28.5902 9.53753 29.3503 8.84599 29.3503 7.99603ZM2.30346 3.72727C2.30346 4.57723 3.06357 5.26877 3.99796 5.26877H19.9654C20.8997 5.26877 21.6599 4.57723 21.6599 3.72727C21.6599 2.87731 20.8997 2.18577 19.9654 2.18577H3.99796C3.06357 2.18577 2.30346 2.87731 2.30346 3.72727ZM23.4847 10.7233H7.51731C6.58298 10.7233 5.82281 11.4148 5.82281 12.2648C5.82281 13.1148 6.58298 13.8063 7.51731 13.8063H15.449C17.4559 11.9761 20.2297 10.8419 23.2893 10.8419C23.6042 10.8419 23.9158 10.8546 24.2241 10.8782C23.9986 10.7788 23.7472 10.7233 23.4847 10.7233ZM14.3354 14.9921H7.51731C6.58292 14.9921 5.82281 15.6836 5.82281 16.5336C5.82281 17.3836 6.58292 18.0751 7.51731 18.0751H12.6602C13.0235 16.9542 13.5955 15.9142 14.3354 14.9921ZM12.361 19.2608H7.51731C6.58292 19.2608 5.82281 19.9523 5.82281 20.8023C5.82281 21.6523 6.58292 22.3438 7.51731 22.3438H12.3208C12.2482 21.8788 12.2098 21.4039 12.2098 20.921C12.2098 20.3555 12.2621 19.8011 12.361 19.2608ZM5.82281 25.0711C5.82281 25.9211 6.58292 26.6126 7.51731 26.6126H14.1506C13.4499 25.6845 12.9157 24.645 12.5869 23.5296H7.51731C6.58292 23.5296 5.82281 24.2211 5.82281 25.0711ZM13.5133 20.921C13.5133 25.8247 17.8988 29.8142 23.2893 29.8142C28.6797 29.8142 33.0652 25.8247 33.0652 20.921C33.0652 16.0172 28.6797 12.0277 23.2893 12.0277C17.8988 12.0277 13.5133 16.0172 13.5133 20.921ZM21.6268 18.8945C21.6268 19.6148 22.3712 20.2009 23.2861 20.2009C25.0329 20.2009 26.4539 21.4026 26.4539 22.8797C26.4539 24.1371 25.4241 25.1943 24.0404 25.4812V25.7776C24.0404 26.1565 23.7026 26.4637 23.2861 26.4637C22.8696 26.4637 22.5319 26.1565 22.5319 25.7776V25.4812C21.1482 25.1943 20.1184 24.1371 20.1184 22.8797C20.1184 22.5008 20.4561 22.1936 20.8726 22.1936C21.2891 22.1936 21.6268 22.5008 21.6268 22.8797C21.6268 23.6002 22.3712 24.1863 23.2861 24.1863C24.2011 24.1863 24.9454 23.6002 24.9454 22.8797C24.9454 22.1593 24.2011 21.5732 23.2861 21.5732C21.5394 21.5732 20.1184 20.3715 20.1184 18.8945C20.1184 17.6371 21.1482 16.5799 22.5319 16.293V15.9361C22.5319 15.5573 22.8696 15.25 23.2861 15.25C23.7026 15.25 24.0404 15.5573 24.0404 15.9361V16.293C25.4241 16.5799 26.4539 17.6371 26.4539 18.8945C26.4539 19.2733 26.1162 19.5806 25.6997 19.5806C25.2832 19.5806 24.9454 19.2733 24.9454 18.8945C24.9454 18.174 24.2011 17.5879 23.2861 17.5879C22.3712 17.5879 21.6268 18.174 21.6268 18.8945Z" fill="#FF872C"/>
<path d="M26.2486 11.2076L26.0216 11.3123L26.0716 11.4207L26.1874 11.45L26.2486 11.2076ZM25.9591 10.7233V10.4733H25.4581L25.7593 10.8736L25.9591 10.7233ZM15.198 27.7984L15.3723 27.6192L15.2995 27.5484H15.198V27.7984ZM5.65433 22.9367L5.80091 23.1392L6.08073 22.9367L5.80091 22.7342L5.65433 22.9367ZM5.65433 18.6679L5.80091 18.8705L6.08073 18.6679L5.80091 18.4654L5.65433 18.6679ZM5.65433 14.3992L5.80091 14.6017L6.08073 14.3992L5.80091 14.1967L5.65433 14.3992ZM9.21702 9.53753V9.78753H9.7195L9.41642 9.38674L9.21702 9.53753ZM9.21702 6.45453L9.41644 6.60531L9.71944 6.20453H9.21702V6.45453ZM22.4367 5.26877L22.2373 5.11799L21.9343 5.51877H22.4367V5.26877ZM15.449 13.8063V14.0563H15.5459L15.6175 13.991L15.449 13.8063ZM24.2241 10.8782L24.2051 11.1274L24.3249 10.6494L24.2241 10.8782ZM14.3354 14.9921L14.5304 15.1485L14.8565 14.7421H14.3354V14.9921ZM12.6602 18.0751V18.3251H12.842L12.8981 18.1521L12.6602 18.0751ZM12.361 19.2608L12.6069 19.3058L12.6609 19.0108H12.361V19.2608ZM12.3208 22.3438V22.5938H12.6128L12.5678 22.3053L12.3208 22.3438ZM14.1506 26.6126V26.8626H14.6525L14.3501 26.462L14.1506 26.6126ZM12.5869 23.5296L12.8267 23.4589L12.7738 23.2796H12.5869V23.5296ZM24.0404 25.4812L23.9896 25.2364L23.7904 25.2777V25.4812H24.0404ZM22.5319 25.4812H22.7819V25.2777L22.5827 25.2364L22.5319 25.4812ZM22.5319 16.293L22.5827 16.5378L22.7819 16.4965V16.293H22.5319ZM24.0404 16.293H23.7904V16.4965L23.9896 16.5378L24.0404 16.293ZM26.4756 11.1028C26.3888 10.9146 26.2825 10.7373 26.1588 10.573L25.7593 10.8736C25.8618 11.0099 25.9498 11.1567 26.0216 11.3123L26.4756 11.1028ZM34.6187 20.921C34.6187 16.1636 31.0801 12.1695 26.3098 10.9652L26.1874 11.45C30.7711 12.6071 34.1187 16.4273 34.1187 20.921H34.6187ZM23.2893 31.25C29.5137 31.25 34.6187 26.6384 34.6187 20.921H34.1187C34.1187 26.3187 29.2832 30.75 23.2893 30.75V31.25ZM15.0236 27.9775C17.0941 29.9922 20.0352 31.25 23.2893 31.25V30.75C20.1643 30.75 17.3485 29.5421 15.3723 27.6192L15.0236 27.9775ZM7.51731 28.0484H15.198V27.5484H7.51731V28.0484ZM4.26935 25.0711C4.26935 26.7347 5.74897 28.0484 7.51731 28.0484V27.5484C5.97954 27.5484 4.76935 26.4151 4.76935 25.0711H4.26935ZM5.50776 22.7342C4.7599 23.2755 4.26935 24.1179 4.26935 25.0711H4.76935C4.76935 24.297 5.16697 23.5981 5.80091 23.1392L5.50776 22.7342ZM4.26935 20.8023C4.26935 21.7556 4.7599 22.598 5.50776 23.1392L5.80091 22.7342C5.16697 22.2754 4.76935 21.5764 4.76935 20.8023H4.26935ZM5.50776 18.4654C4.7599 19.0067 4.26935 19.8491 4.26935 20.8023H4.76935C4.76935 20.0283 5.16697 19.3293 5.80091 18.8705L5.50776 18.4654ZM4.26935 16.5336C4.26935 17.4868 4.7599 18.3292 5.50776 18.8705L5.80091 18.4654C5.16697 18.0066 4.76935 17.3076 4.76935 16.5336H4.26935ZM5.50776 14.1967C4.7599 14.7379 4.26935 15.5803 4.26935 16.5336H4.76935C4.76935 15.7595 5.16697 15.0605 5.80091 14.6017L5.50776 14.1967ZM4.26935 12.2648C4.26935 13.218 4.7599 14.0604 5.50776 14.6017L5.80091 14.1967C5.16697 13.7378 4.76935 13.0389 4.76935 12.2648H4.26935ZM7.51731 9.28753C5.74897 9.28753 4.26935 10.6012 4.26935 12.2648H4.76935C4.76935 10.9208 5.97954 9.78753 7.51731 9.78753V9.28753ZM9.21702 9.28753H7.51731V9.78753H9.21702V9.28753ZM8.44042 7.99603C8.44042 8.62606 8.65534 9.20925 9.01761 9.68832L9.41642 9.38674C9.11497 8.98811 8.94042 8.50944 8.94042 7.99603H8.44042ZM9.0176 6.30376C8.65542 6.78281 8.44042 7.36599 8.44042 7.99603H8.94042C8.94042 7.48264 9.11503 7.00397 9.41644 6.60531L9.0176 6.30376ZM3.99796 6.70453H9.21702V6.20453H3.99796V6.70453ZM0.75 3.72727C0.75 5.39087 2.22963 6.70453 3.99796 6.70453V6.20453C2.46019 6.20453 1.25 5.07125 1.25 3.72727H0.75ZM3.99796 0.75C2.22963 0.75 0.75 2.06367 0.75 3.72727H1.25C1.25 2.38328 2.46019 1.25 3.99796 1.25V0.75ZM19.9654 0.75H3.99796V1.25H19.9654V0.75ZM23.2133 3.72727C23.2133 2.06367 21.7337 0.75 19.9654 0.75V1.25C21.5031 1.25 22.7133 2.38328 22.7133 3.72727H23.2133ZM22.6361 5.41954C22.9983 4.94049 23.2133 4.35731 23.2133 3.72727H22.7133C22.7133 4.24066 22.5387 4.71933 22.2373 5.11799L22.6361 5.41954ZM27.6558 5.01877H22.4367V5.51877H27.6558V5.01877ZM30.9037 7.99603C30.9037 6.33243 29.4241 5.01877 27.6558 5.01877V5.51877C29.1935 5.51877 30.4037 6.65205 30.4037 7.99603H30.9037ZM27.6558 10.9733C29.4241 10.9733 30.9037 9.65963 30.9037 7.99603H30.4037C30.4037 9.34002 29.1935 10.4733 27.6558 10.4733V10.9733ZM25.9591 10.9733H27.6558V10.4733H25.9591V10.9733ZM27.6558 6.70453C28.4749 6.70453 29.1003 7.30588 29.1003 7.99603H29.6003C29.6003 6.98627 28.7055 6.20453 27.6558 6.20453V6.70453ZM11.6884 6.70453H27.6558V6.20453H11.6884V6.70453ZM10.2439 7.99603C10.2439 7.30588 10.8693 6.70453 11.6884 6.70453V6.20453C10.6387 6.20453 9.74388 6.98627 9.74388 7.99603H10.2439ZM11.6884 9.28753C10.8693 9.28753 10.2439 8.68619 10.2439 7.99603H9.74388C9.74388 9.0058 10.6387 9.78753 11.6884 9.78753V9.28753ZM23.4847 9.28753H11.6884V9.78753H23.4847V9.28753ZM27.6558 9.28753H23.4847V9.78753H27.6558V9.28753ZM29.1003 7.99603C29.1003 8.68619 28.4749 9.28753 27.6558 9.28753V9.78753C28.7055 9.78753 29.6003 9.0058 29.6003 7.99603H29.1003ZM3.99796 5.01877C3.17886 5.01877 2.55346 4.41742 2.55346 3.72727H2.05346C2.05346 4.73703 2.94829 5.51877 3.99796 5.51877V5.01877ZM19.9654 5.01877H3.99796V5.51877H19.9654V5.01877ZM21.4099 3.72727C21.4099 4.41742 20.7845 5.01877 19.9654 5.01877V5.51877C21.015 5.51877 21.9099 4.73703 21.9099 3.72727H21.4099ZM19.9654 2.43577C20.7845 2.43577 21.4099 3.03711 21.4099 3.72727H21.9099C21.9099 2.71751 21.015 1.93577 19.9654 1.93577V2.43577ZM3.99796 2.43577H19.9654V1.93577H3.99796V2.43577ZM2.55346 3.72727C2.55346 3.03711 3.17886 2.43577 3.99796 2.43577V1.93577C2.94829 1.93577 2.05346 2.71751 2.05346 3.72727H2.55346ZM7.51731 10.9733H23.4847V10.4733H7.51731V10.9733ZM6.07281 12.2648C6.07281 11.5746 6.69827 10.9733 7.51731 10.9733V10.4733C6.4677 10.4733 5.57281 11.255 5.57281 12.2648H6.07281ZM7.51731 13.5563C6.69827 13.5563 6.07281 12.9549 6.07281 12.2648H5.57281C5.57281 13.2746 6.4677 14.0563 7.51731 14.0563V13.5563ZM15.449 13.5563H7.51731V14.0563H15.449V13.5563ZM23.2893 10.5919C20.1678 10.5919 17.3338 11.7491 15.2805 13.6216L15.6175 13.991C17.578 12.2031 20.2916 11.0919 23.2893 11.0919V10.5919ZM24.2431 10.6289C23.9289 10.6049 23.6109 10.5919 23.2893 10.5919V11.0919C23.5975 11.0919 23.9027 11.1044 24.2051 11.1274L24.2431 10.6289ZM23.4847 10.9733C23.7119 10.9733 23.929 11.0213 24.1233 11.1069L24.3249 10.6494C24.0682 10.5363 23.7825 10.4733 23.4847 10.4733V10.9733ZM7.51731 15.2421H14.3354V14.7421H7.51731V15.2421ZM6.07281 16.5336C6.07281 15.8434 6.69821 15.2421 7.51731 15.2421V14.7421C6.46763 14.7421 5.57281 15.5238 5.57281 16.5336H6.07281ZM7.51731 17.8251C6.6982 17.8251 6.07281 17.2238 6.07281 16.5336H5.57281C5.57281 17.5434 6.46764 18.3251 7.51731 18.3251V17.8251ZM12.6602 17.8251H7.51731V18.3251H12.6602V17.8251ZM14.1404 14.8356C13.3825 15.7802 12.7955 16.847 12.4224 17.998L12.8981 18.1521C13.2516 17.0615 13.8086 16.0481 14.5304 15.1485L14.1404 14.8356ZM7.51731 19.5108H12.361V19.0108H7.51731V19.5108ZM6.07281 20.8023C6.07281 20.1121 6.6982 19.5108 7.51731 19.5108V19.0108C6.46764 19.0108 5.57281 19.7925 5.57281 20.8023H6.07281ZM7.51731 22.0938C6.6982 22.0938 6.07281 21.4925 6.07281 20.8023H5.57281C5.57281 21.8122 6.46764 22.5938 7.51731 22.5938V22.0938ZM12.3208 22.0938H7.51731V22.5938H12.3208V22.0938ZM11.9598 20.921C11.9598 21.4172 11.9993 21.905 12.0737 22.3824L12.5678 22.3053C12.4972 21.8527 12.4598 21.3907 12.4598 20.921H11.9598ZM12.1151 19.2158C12.0135 19.7706 11.9598 20.3401 11.9598 20.921H12.4598C12.4598 20.371 12.5107 19.8316 12.6069 19.3058L12.1151 19.2158ZM7.51731 26.3626C6.6982 26.3626 6.07281 25.7613 6.07281 25.0711H5.57281C5.57281 26.0809 6.46764 26.8626 7.51731 26.8626V26.3626ZM14.1506 26.3626H7.51731V26.8626H14.1506V26.3626ZM12.3471 23.6003C12.6848 24.7458 13.2331 25.8122 13.951 26.7632L14.3501 26.462C13.6668 25.5568 13.1466 24.5441 12.8267 23.4589L12.3471 23.6003ZM7.51731 23.7796H12.5869V23.2796H7.51731V23.7796ZM6.07281 25.0711C6.07281 24.3809 6.6982 23.7796 7.51731 23.7796V23.2796C6.46764 23.2796 5.57281 24.0613 5.57281 25.0711H6.07281ZM23.2893 29.5642C18.0141 29.5642 13.7633 25.6649 13.7633 20.921H13.2633C13.2633 25.9845 17.7835 30.0642 23.2893 30.0642V29.5642ZM32.8152 20.921C32.8152 25.6649 28.5644 29.5642 23.2893 29.5642V30.0642C28.795 30.0642 33.3152 25.9845 33.3152 20.921H32.8152ZM23.2893 12.2777C28.5644 12.2777 32.8152 16.177 32.8152 20.921H33.3152C33.3152 15.8574 28.795 11.7777 23.2893 11.7777V12.2777ZM13.7633 20.921C13.7633 16.177 18.0141 12.2777 23.2893 12.2777V11.7777C17.7835 11.7777 13.2633 15.8574 13.2633 20.921H13.7633ZM23.2861 19.9509C22.4503 19.9509 21.8768 19.4244 21.8768 18.8945H21.3768C21.3768 19.8053 22.2921 20.4509 23.2861 20.4509V19.9509ZM26.7039 22.8797C26.7039 21.2269 25.13 19.9509 23.2861 19.9509V20.4509C24.9357 20.4509 26.2039 21.5783 26.2039 22.8797H26.7039ZM24.0911 25.726C25.5593 25.4215 26.7039 24.2851 26.7039 22.8797H26.2039C26.2039 23.989 25.2889 24.967 23.9896 25.2364L24.0911 25.726ZM24.2904 25.7776V25.4812H23.7904V25.7776H24.2904ZM23.2861 26.7137C23.8179 26.7137 24.2904 26.3163 24.2904 25.7776H23.7904C23.7904 25.9967 23.5873 26.2137 23.2861 26.2137V26.7137ZM22.2819 25.7776C22.2819 26.3163 22.7544 26.7137 23.2861 26.7137V26.2137C22.9849 26.2137 22.7819 25.9967 22.7819 25.7776H22.2819ZM22.2819 25.4812V25.7776H22.7819V25.4812H22.2819ZM19.8684 22.8797C19.8684 24.2851 21.013 25.4215 22.4811 25.726L22.5827 25.2364C21.2834 24.967 20.3684 23.989 20.3684 22.8797H19.8684ZM20.8726 21.9436C20.3408 21.9436 19.8684 22.341 19.8684 22.8797H20.3684C20.3684 22.6607 20.5714 22.4436 20.8726 22.4436V21.9436ZM21.8768 22.8797C21.8768 22.341 21.4044 21.9436 20.8726 21.9436V22.4436C21.1738 22.4436 21.3768 22.6606 21.3768 22.8797H21.8768ZM23.2861 23.9363C22.4503 23.9363 21.8768 23.4097 21.8768 22.8797H21.3768C21.3768 23.7906 22.2921 24.4363 23.2861 24.4363V23.9363ZM24.6954 22.8797C24.6954 23.4097 24.122 23.9363 23.2861 23.9363V24.4363C24.2802 24.4363 25.1954 23.7906 25.1954 22.8797H24.6954ZM23.2861 21.8232C24.122 21.8232 24.6954 22.3497 24.6954 22.8797H25.1954C25.1954 21.9688 24.2802 21.3232 23.2861 21.3232V21.8232ZM19.8684 18.8945C19.8684 20.5472 21.4423 21.8232 23.2861 21.8232V21.3232C21.6365 21.3232 20.3684 20.1958 20.3684 18.8945H19.8684ZM22.4811 16.0482C21.013 16.3527 19.8684 17.4891 19.8684 18.8945H20.3684C20.3684 17.7852 21.2834 16.8072 22.5827 16.5378L22.4811 16.0482ZM22.2819 15.9361V16.293H22.7819V15.9361H22.2819ZM23.2861 15C22.7544 15 22.2819 15.3974 22.2819 15.9361H22.7819C22.7819 15.7171 22.9849 15.5 23.2861 15.5V15ZM24.2904 15.9361C24.2904 15.3974 23.8179 15 23.2861 15V15.5C23.5873 15.5 23.7904 15.7171 23.7904 15.9361H24.2904ZM24.2904 16.293V15.9361H23.7904V16.293H24.2904ZM26.7039 18.8945C26.7039 17.4891 25.5593 16.3527 24.0911 16.0482L23.9896 16.5378C25.2889 16.8072 26.2039 17.7852 26.2039 18.8945H26.7039ZM25.6997 19.8306C26.2315 19.8306 26.7039 19.4332 26.7039 18.8945H26.2039C26.2039 19.1135 26.0009 19.3306 25.6997 19.3306V19.8306ZM24.6954 18.8945C24.6954 19.4332 25.1679 19.8306 25.6997 19.8306V19.3306C25.3985 19.3306 25.1954 19.1135 25.1954 18.8945H24.6954ZM23.2861 17.8379C24.122 17.8379 24.6954 18.3645 24.6954 18.8945H25.1954C25.1954 17.9836 24.2802 17.3379 23.2861 17.3379V17.8379ZM21.8768 18.8945C21.8768 18.3645 22.4503 17.8379 23.2861 17.8379V17.3379C22.2921 17.3379 21.3768 17.9836 21.3768 18.8945H21.8768Z" fill="#FF872C"/>
<path d="M53.032 15.904C53.032 19.984 55.744 22.744 59.272 22.744C61.672 22.744 63.376 21.472 64.168 20.056V22.816C64.168 25.624 62.416 27.112 60.088 27.112C57.928 27.112 56.368 26.032 55.888 24.448H53.728C54.16 27.256 56.632 29.008 60.088 29.008C63.952 29.008 66.376 26.44 66.376 22.816V9.376H64.168V11.776C63.4 10.36 61.672 9.16 59.272 9.16C55.744 9.16 53.032 11.8 53.032 15.904ZM64.168 15.928C64.168 19.024 62.104 20.824 59.704 20.824C57.304 20.824 55.264 19 55.264 15.904C55.264 12.808 57.304 11.056 59.704 11.056C62.104 11.056 64.168 12.88 64.168 15.928Z" fill="white"/>
<path d="M82.5467 15.928C82.5467 11.776 79.6427 9.16 75.8987 9.16C72.1787 9.16 69.2507 11.776 69.2507 15.928C69.2507 20.104 72.0827 22.744 75.8027 22.744C79.5467 22.744 82.5467 20.104 82.5467 15.928ZM71.4827 15.928C71.4827 12.616 73.5707 11.056 75.8747 11.056C78.1307 11.056 80.3147 12.616 80.3147 15.928C80.3147 19.264 78.0827 20.824 75.8027 20.824C73.5227 20.824 71.4827 19.264 71.4827 15.928Z" fill="white"/>
<path d="M86.6743 22.528H89.4343V11.536H91.8823V9.304H89.4343V8.368C89.4343 6.856 90.0103 6.28 91.6903 6.28V4C88.2343 4 86.6743 5.32 86.6743 8.368V9.304H85.1143V11.536H86.6743V22.528Z" fill="white"/>
<path d="M94.3071 22.528H97.0431V9.304H94.3071V22.528ZM95.6991 7.552C96.6591 7.552 97.4271 6.784 97.4271 5.8C97.4271 4.816 96.6591 4.048 95.6991 4.048C94.7151 4.048 93.9471 4.816 93.9471 5.8C93.9471 6.784 94.7151 7.552 95.6991 7.552Z" fill="white"/>
<path d="M110.019 22.528H112.731V14.728C112.731 11.032 110.403 9.088 107.307 9.088C105.723 9.088 104.259 9.736 103.371 10.816V9.304H100.635V22.528H103.371V15.136C103.371 12.712 104.691 11.464 106.707 11.464C108.699 11.464 110.019 12.712 110.019 15.136V22.528Z" fill="white"/>
<path d="M115.309 15.856C115.309 19.936 118.069 22.744 121.501 22.744C123.709 22.744 125.293 21.688 126.133 20.56V22.528H128.893V9.304H126.133V11.224C125.317 10.144 123.781 9.088 121.549 9.088C118.069 9.088 115.309 11.776 115.309 15.856ZM126.133 15.904C126.133 18.76 124.189 20.368 122.125 20.368C120.085 20.368 118.117 18.712 118.117 15.856C118.117 13 120.085 11.464 122.125 11.464C124.189 11.464 126.133 13.072 126.133 15.904Z" fill="white"/>
<path d="M141.871 22.528H144.583V14.728C144.583 11.032 142.255 9.088 139.159 9.088C137.575 9.088 136.111 9.736 135.223 10.816V9.304H132.487V22.528H135.223V15.136C135.223 12.712 136.543 11.464 138.559 11.464C140.551 11.464 141.871 12.712 141.871 15.136V22.528Z" fill="white"/>
<path d="M147.161 15.904C147.161 20.056 149.849 22.744 153.641 22.744C156.881 22.744 158.993 20.944 159.737 18.352H156.785C156.281 19.72 155.273 20.44 153.641 20.44C151.433 20.44 149.969 18.808 149.969 15.904C149.969 13.024 151.433 11.392 153.641 11.392C155.273 11.392 156.329 12.208 156.785 13.48H159.737C158.993 10.696 156.881 9.088 153.641 9.088C149.849 9.088 147.161 11.776 147.161 15.904Z" fill="white"/>
<path d="M168.031 11.392C170.071 11.392 171.679 12.688 171.727 14.728H164.407C164.695 12.64 166.183 11.392 168.031 11.392ZM174.223 18.592H171.271C170.767 19.624 169.831 20.44 168.151 20.44C166.135 20.44 164.575 19.12 164.383 16.936H174.487C174.559 16.48 174.583 16.048 174.583 15.592C174.583 11.704 171.919 9.088 168.151 9.088C164.239 9.088 161.551 11.752 161.551 15.904C161.551 20.056 164.359 22.744 168.151 22.744C171.391 22.744 173.479 20.896 174.223 18.592Z" fill="white"/>
<path d="M187.14 18.832C186.996 14.056 179.532 15.544 179.532 12.88C179.532 11.992 180.3 11.392 181.764 11.392C183.252 11.392 184.14 12.184 184.236 13.336H186.972C186.828 10.696 184.86 9.088 181.86 9.088C178.74 9.088 176.772 10.792 176.772 12.904C176.772 17.752 184.452 16.264 184.452 18.856C184.452 19.768 183.612 20.44 182.028 20.44C180.516 20.44 179.484 19.552 179.388 18.472H176.556C176.676 20.872 178.908 22.744 182.076 22.744C185.196 22.744 187.14 21.064 187.14 18.832Z" fill="white"/>
</svg>
